<svg width="32" height="32" viewBox="0 0 32 32" fill="none" xmlns="http://www.w3.org/2000/svg">
  <!-- Background circle -->
  <circle cx="16" cy="16" r="16" fill="#0A0A0B"/>

  <!-- Staff -->
  <line x1="16" y1="4" x2="16" y2="29" stroke="#B8860B" stroke-width="1.6" stroke-linecap="round"/>

  <!-- Wings left -->
  <path d="M16 8 C12 5, 6 5, 4 8 C7 6, 13 8, 16 11" fill="#B8860B" opacity="0.95"/>
  <path d="M16 8 C12 6, 7 6, 5 9 C8 7, 13 9, 16 11" fill="#D4A017" opacity="0.5"/>

  <!-- Wings right -->
  <path d="M16 8 C20 5, 26 5, 28 8 C25 6, 19 8, 16 11" fill="#B8860B" opacity="0.95"/>
  <path d="M16 8 C20 6, 25 6, 27 9 C24 7, 19 9, 16 11" fill="#D4A017" opacity="0.5"/>

  <!-- Left snake -->
  <path d="M16 11 C11 13, 9 17, 12 20 C14 22, 16 20, 14 23 C12 26, 11 28, 14 29" stroke="#B8860B" stroke-width="1.4" stroke-linecap="round" fill="none"/>

  <!-- Right snake -->
  <path d="M16 11 C21 13, 23 17, 20 20 C18 22, 16 20, 18 23 C20 26, 21 28, 18 29" stroke="#D4A017" stroke-width="1.4" stroke-linecap="round" fill="none"/>

  <!-- Top orb -->
  <circle cx="16" cy="4" r="2.5" fill="#B8860B"/>
  <circle cx="16" cy="4" r="1.3" fill="#FFD700" opacity="0.8"/>
</svg>
